# xmcd
#
# Track frame offsets:
#	150
#	11770
#	22545
#	38254
#	50931
#	65633
#	77836
#	93937
#	106040
#	115205
#	127857
#	137914
#	152464
#	164206
#	171041
#
# Disc length: 2401 seconds
#
# Revision: 0
# Processed by: cddbd v1.5.2PL0 Copyright (c) Steve Scherf et al.
# Submitted via: EZCDAudioConverter 2.1.7.1
#
DISCID=b5095f0f
DTITLE=Los Straitjackets - Jet Set
DYEAR=2012
DGENRE=
TTITLE0=Crime Scene
TTITLE1=Yeah Yeah Yeah
TTITLE2=New Siberia
TTITLE3=Aerostar
TTITLE4=Brooklyn Slide
TTITLE5=Jet Set
TTITLE6=Low Tide
TTITLE7=Walking Down 3rd Street
TTITLE8=Bobsleddin'
TTITLE9=Wrong Way Inn
TTITLE10=Space Mosquito
TTITLE11=Sardinian Holiday
TTITLE12=Mr. Pink
TTITLE13=Pop Rocks and Coke
TTITLE14=Für Sophia
EXTD=
EXTT0=
EXTT1=
EXTT2=
EXTT3=
EXTT4=
EXTT5=
EXTT6=
EXTT7=
EXTT8=
EXTT9=
EXTT10=
EXTT11=
EXTT12=
EXTT13=
EXTT14=
PLAYORDER=
